<svg xmlns="http://www.w3.org/2000/svg" viewBox="0 0 100 100" fill="none"><g clip-path="url(#clip0_491_1711)"><path d="M30.4992 83.1998C29.0992 83.1998 27.5992 83.0998 26.1992 82.7998C25.5992 82.7998 25.1992 82.3998 25.1992 81.7998C25.1992 81.1998 25.5992 80.7998 26.1992 80.7998C32.4992 79.1998 36.7992 76.2998 39.0992 72.2998C41.1992 68.3998 41.3992 63.5998 39.5992 57.9998C36.7992 49.4998 38.4992 41.7998 44.3992 35.6998C47.9992 31.9998 59.5992 22.7998 66.0992 17.6998C67.7992 16.3998 70.2992 16.4998 71.7992 18.0998L71.8992 18.1998C72.3992 18.6998 72.6992 19.4998 72.5992 20.1998C72.5992 20.8998 72.2992 21.5998 71.6992 21.9998L53.9992 37.9998C49.1992 42.1998 47.4992 48.8998 49.7992 54.7998C52.7992 61.6998 51.5992 69.5998 46.7992 75.3998C42.8992 80.3998 36.8992 83.1998 30.4992 83.1998ZM68.6992 18.7998C68.1992 18.7998 67.6992 18.9998 67.2992 19.2998C62.0992 23.3998 49.4992 33.2998 45.6992 37.1998C40.1992 42.7998 38.6992 49.5998 41.2992 57.4998C43.2992 63.5998 43.0992 69.0998 40.6992 73.3998C38.5992 76.9998 35.2992 79.7998 31.3992 81.2998C36.7992 80.9998 41.7992 78.4998 45.1992 74.2998C49.5992 69.0998 50.5992 61.8998 47.9992 55.6998C45.3992 48.9998 47.1992 41.3998 52.6992 36.5998L70.4992 20.5998C70.5992 20.4998 70.6992 20.2998 70.6992 20.1998C70.6992 19.9998 70.5992 19.7998 70.4992 19.6998L70.3992 19.5998C69.8992 19.0998 69.2992 18.7998 68.6992 18.7998Z" fill="#45A771" stroke="#45A771" stroke-miterlimit="10"/><path d="M50.3006 61.7999C49.7006 61.7999 49.3006 61.3999 49.3006 60.7999C49.3006 60.1999 49.7006 59.7999 50.3006 59.7999C55.1006 59.5999 59.6006 57.5999 62.9006 54.0999C66.6006 50.3999 76.1006 38.1999 80.6006 32.2999C81.3006 31.3999 81.2006 30.0999 80.4006 29.2999C80.3006 29.2999 80.3006 29.1999 80.3006 29.1999C80.0006 28.9999 79.6006 29.0999 79.4006 29.2999L63.6006 47.2999C59.7006 51.7999 53.8006 53.8999 48.0006 53.0999C47.4006 52.9999 47.1006 52.4999 47.2006 51.8999C47.3006 51.2999 47.8006 50.9999 48.4006 51.0999C53.6006 51.8999 58.8006 49.8999 62.2006 45.9999L77.8006 27.9999C78.8006 26.8999 80.5006 26.7999 81.6006 27.7999C81.7006 27.8999 81.8006 27.9999 81.8006 28.0999C83.2006 29.5999 83.4006 31.8999 82.1006 33.5999C77.6006 39.5999 68.1006 51.7999 64.3006 55.5999C60.6006 59.3999 55.6006 61.6999 50.3006 61.7999Z" fill="#45A771" stroke="#45A771" stroke-miterlimit="10"/><path d="M18.5004 75.0002C18.0004 75.0002 17.6004 74.7002 17.5004 74.2002C16.0004 67.7002 17.8004 60.8002 22.2004 55.8002C26.4004 50.9002 32.7004 48.3002 39.1004 48.8002C39.7004 48.8002 40.1004 49.3002 40.1004 49.8002C40.1004 50.2002 39.9004 50.5002 39.5004 50.7002C39.3004 50.8002 39.2004 50.8002 39.0004 50.8002C33.2004 50.4002 27.5004 52.7002 23.6004 57.1002C20.9004 60.4002 19.2004 64.5002 19.0004 68.9002C20.4004 65.1002 23.0004 61.9002 26.4004 59.7002C30.4004 57.3002 35.4004 56.8002 41.1004 58.3002C41.6004 58.4002 42.0004 59.0002 41.8004 59.5002C41.7004 60.0002 41.1004 60.4002 40.6004 60.2002C35.5004 58.9002 31.0004 59.2002 27.5004 61.4002C23.6004 63.7002 20.9004 68.0002 19.5004 74.2002C19.3004 74.7002 18.9004 75.0002 18.5004 75.0002Z" fill="#45A771" stroke="#45A771" stroke-miterlimit="10"/><path d="M44.6994 59.5002C44.2994 59.5002 43.8994 59.4002 43.5994 59.3002C42.8994 59.0002 42.2994 58.4002 41.9994 57.7002C41.3994 56.2002 42.0994 54.4002 43.5994 53.8002C44.2994 53.5002 45.1994 53.5002 45.8994 53.8002C46.5994 54.1002 47.1994 54.7002 47.4994 55.4002C48.0994 56.9002 47.3994 58.7002 45.8994 59.3002C45.4994 59.4002 45.0994 59.5002 44.6994 59.5002ZM44.6994 55.5002C44.5994 55.5002 44.3994 55.5002 44.2994 55.6002C43.7994 55.8002 43.5994 56.4002 43.7994 56.9002C43.9994 57.4002 44.5994 57.6002 45.0994 57.4002C45.5994 57.2002 45.7994 56.6002 45.5994 56.1002C45.4994 55.9002 45.2994 55.7002 45.0994 55.6002C44.8994 55.5002 44.7994 55.5002 44.6994 55.5002Z" fill="#45A771" stroke="#45A771" stroke-miterlimit="10"/></g><defs><clipPath id="clip0_491_1711"><rect width="68" height="68" fill="white" transform="translate(16 16)"/></clipPath></defs></svg>