<svg xmlns="http://www.w3.org/2000/svg" viewBox="0 0 100 100" fill="none"><g clip-path="url(#clip0_487_1688)"><path fill-rule="evenodd" clip-rule="evenodd" d="M83.7197 46.573C72.6088 37.0775 61.4981 27.5821 50.3872 18.0866C49.9378 17.7016 49.2741 17.7045 48.8286 18.0935C37.9558 27.5549 27.0833 37.0168 16.2104 46.4782C15.7133 46.9102 15.6615 47.6642 16.0942 48.1613C16.5262 48.6585 17.2802 48.7111 17.7773 48.2776C20.121 46.2379 22.4644 44.198 24.8081 42.1584C24.8081 54.881 24.8081 67.6038 24.8081 80.3264C24.8081 80.9858 25.342 81.5197 26.0015 81.5197C41.5741 81.5197 57.1466 81.5197 72.7192 81.5197C73.3787 81.5197 73.9126 80.9858 73.9126 80.3264C73.9126 67.3275 73.9126 54.3286 73.9126 41.3298C76.6649 43.682 79.4171 46.0342 82.1694 48.3864C82.3945 48.5789 82.6699 48.6726 82.9443 48.6726C83.2816 48.6726 83.6163 48.5311 83.8525 48.2551C84.2805 47.754 84.2208 47.0009 83.7197 46.573ZM71.5264 79.134C56.7492 79.134 41.972 79.134 27.1948 79.134C27.1948 66.1171 27.1948 53.1001 27.1948 40.0832C34.6697 33.5788 42.1442 27.0745 49.6191 20.57C56.9216 26.8106 64.2243 33.0511 71.5268 39.2917C71.5266 52.5725 71.5266 65.8533 71.5264 79.134Z" fill="#45A771"/><path fill-rule="evenodd" clip-rule="evenodd" d="M36.8516 43.6938C36.8516 51.3249 36.8516 58.9559 36.8516 66.5869C36.8516 67.2456 37.3855 67.7803 38.0449 67.7803C45.6755 67.7803 53.306 67.7803 60.9365 67.7803C61.5952 67.7803 62.1294 67.2456 62.1294 66.5869C62.1294 58.9559 62.1294 51.3249 62.1294 43.6938C62.1294 43.0344 61.5952 42.5005 60.9365 42.5005C53.306 42.5005 45.6755 42.5005 38.0449 42.5005C37.3863 42.5005 36.8516 43.0344 36.8516 43.6938ZM50.771 65.394C50.771 62.3743 50.771 59.3543 50.771 56.3345C53.7617 56.3345 56.7525 56.3345 59.7432 56.3345C59.7432 59.3543 59.7432 62.3743 59.7432 65.394C56.7525 65.394 53.7617 65.394 50.771 65.394ZM59.7441 53.9482C56.7532 53.9482 53.7619 53.9482 50.771 53.9482C50.771 50.9279 50.771 47.9075 50.771 44.8872C53.7617 44.8872 56.7525 44.8872 59.7432 44.8872C59.7432 47.9075 59.7441 50.9279 59.7441 53.9482C59.7439 53.9482 59.7444 53.9482 59.7441 53.9482ZM39.2378 44.8872C42.2868 44.8872 45.3358 44.8872 48.3848 44.8872C48.3848 48.1579 48.3848 51.4281 48.3848 54.6987C48.3299 54.8355 48.2983 54.9844 48.2983 55.1411C48.2983 55.2978 48.3299 55.4467 48.3848 55.5835C48.3848 58.8534 48.3848 62.1232 48.3848 65.3931C45.3358 65.3931 42.2868 65.3931 39.2378 65.3931C39.2378 58.5577 39.2378 51.7225 39.2378 44.8872Z" fill="#45A771"/></g><defs><clipPath id="clip0_487_1688"><rect width="69.9374" height="65.3197" fill="white" transform="translate(15 17)"/></clipPath></defs></svg>